<svg width="228" height="176" viewBox="0 0 228 176" fill="none" xmlns="http://www.w3.org/2000/svg">
<path d="M104.885 62.8361L32 32V144.131L104.885 175.902V62.8361Z" fill="#E6A352"/>
<path d="M103.721 62.9343L30.8359 32.0983L75.6884 17.1475L148.574 48.918L103.721 62.9343Z" fill="#AC752E"/>
<path d="M148.574 48.9175L75.6885 17.147L127.082 1.26172L201.836 32.0978L148.574 48.9175Z" fill="#AC752E"/>
<path d="M128.875 81.625L127 1L202 31.9375V106L128.875 81.625Z" fill="#BC8239"/>
<path d="M202 32L104 62.8571V176L202 144.208V32Z" fill="#D59240"/>
<path d="M172.604 13.2778L127 1L201.455 32.1667L221 35L172.604 13.2778Z" fill="#E8B06D"/>
<path d="M127 0.941176L30.592 32L10 28.2353L108.28 0L127 0.941176Z" fill="#EEAA56"/>
<path d="M143.158 112L104 63.0588L201.895 32L228 69.6471L143.158 112Z" fill="#EDB46F"/>
<path d="M79.6667 126L31 87.0882L104 63L79.6667 126Z" fill="#B9874A"/>
<path d="M0 72.4405L30.9189 32L104 63.0357L76.8288 111L0 72.4405Z" fill="#EDC28E"/>
</svg>
