<svg width="203" height="171" viewBox="0 0 203 171" fill="none" xmlns="http://www.w3.org/2000/svg">
<path d="M86.9652 66.2221L19.4229 37.6465V141.558L86.9652 170.999V66.2221Z" fill="#E6A352"/>
<path d="M177.888 37.6465L86.9653 66.2221V170.999L177.888 141.558V37.6465Z" fill="#D59240"/>
<path d="M86.9652 66.2225L19.4229 37.6468L60.9874 23.792L128.53 53.2335L86.9652 66.2225Z" fill="#E6A453"/>
<path d="M128.531 53.2336L60.9883 23.7921L108.614 9.07129L177.889 37.6469L128.531 53.2336Z" fill="#E6A453"/>
<path d="M137.459 0L109 8.83721L177.991 38L203 21.2093L137.459 0Z" fill="#E8B06D"/>
<path d="M50.9296 50L20 37.1875L108.493 9L142 22.6667L50.9296 50Z" fill="#EEAA56"/>
<path d="M142.578 23L51 50.52L87.2857 66L178 37.62L142.578 23Z" fill="#EDB46F"/>
<path d="M65.3465 21.9863L0 3L20.0396 37.5205L88 66L65.3465 21.9863Z" fill="#EDC28E"/>
</svg>
