<svg width="161" height="178" viewBox="0 0 161 178" fill="none" xmlns="http://www.w3.org/2000/svg">
<path d="M68.25 71.625L0 42.75V147.75L68.25 177.5V71.625Z" fill="#E6A352"/>
<path d="M160.125 42.75L68.2495 71.625V177.5L160.125 147.75V42.75Z" fill="#D59240"/>
<path d="M68.25 71.625L0 42.75L42 28.75L110.25 58.5L68.25 71.625Z" fill="#E6A453"/>
<path d="M110.25 58.5L42 28.75L90.125 13.875L160.125 42.75L110.25 58.5Z" fill="#E6A453"/>
<path d="M31.4366 56L0 42.875L89.9437 14L124 28L31.4366 56Z" fill="#EEAA56"/>
<path d="M124.02 28L31 56.16L67.8571 72L160 42.96L124.02 28Z" fill="#EDB46F"/>
<path d="M68.6165 72L0 42.4156L32.5489 5L117 32.8442L68.6165 72Z" fill="#EDC28E"/>
<path d="M120.114 27.3529L54 0L120.984 21.1765L161 45L120.114 27.3529Z" fill="#E8B06D"/>
</svg>
