<svg width="119" height="94" viewBox="0 0 119 94" fill="none" xmlns="http://www.w3.org/2000/svg">
<path d="M55.5 33L16.5 16.5V76.5L55.5 93.5V33Z" fill="#E6A352"/>
<path d="M55.5 33L16.5 16.5L40.5 8.5L79.5 25.5L55.5 33Z" fill="#AC752E"/>
<path d="M79.5 25.5L40.5 8.5L68 0L108 16.5L79.5 25.5Z" fill="#AC752E"/>
<path d="M69 43L68 0L108 16.5V56L69 43Z" fill="#BC8239"/>
<path d="M108 16.5L55.5 33V93.5L108 76.5V16.5Z" fill="#D59240"/>
<path d="M92.5 6.5L68 0L108 16.5L118.5 18L92.5 6.5Z" fill="#E8B06D"/>
<path d="M42.5 67L16.5 46L55.5 33L42.5 67Z" fill="#B9874A"/>
<path d="M0 38L16.5 16.5L55.5 33L41 58.5L0 38Z" fill="#EDC28E"/>
<path d="M68 0L16.5 16.5L5.5 18.5L56 2.5L68 0Z" fill="#EEAA56"/>
<path d="M70 69.5L55.5 33L110.5 44.5L70 69.5Z" fill="#B9874A"/>
<path d="M73 60.5L55.5 33L108 16.5L116 42.5L73 60.5Z" fill="#EDB46F"/>
</svg>
