<svg width="50" height="50" viewBox="0 0 50 50" fill="none" xmlns="http://www.w3.org/2000/svg">
<mask id="path-1-inside-1_0_46" fill="white">
<path d="M48.9727 45.9965L37.1692 34.1954C40.5904 30.0881 42.2963 24.82 41.9322 19.487C41.5681 14.154 39.162 9.16665 35.2144 5.56247C31.2668 1.95829 26.0816 0.0147746 20.7375 0.136227C15.3935 0.25768 10.302 2.43475 6.52216 6.21454C2.74236 9.99434 0.565297 15.0859 0.443844 20.4299C0.322392 25.774 2.26591 30.9591 5.87008 34.9067C9.47426 38.8544 14.4616 41.2605 19.7946 41.6246C25.1277 41.9887 30.3958 40.2827 34.503 36.8616L46.3041 48.6651C46.4794 48.8403 46.6874 48.9793 46.9163 49.0741C47.1453 49.169 47.3906 49.2178 47.6384 49.2178C47.8862 49.2178 48.1316 49.169 48.3605 49.0741C48.5895 48.9793 48.7975 48.8403 48.9727 48.6651C49.1479 48.4899 49.2869 48.2819 49.3817 48.0529C49.4766 47.824 49.5254 47.5786 49.5254 47.3308C49.5254 47.083 49.4766 46.8376 49.3817 46.6087C49.2869 46.3798 49.1479 46.1717 48.9727 45.9965ZM4.26241 20.928C4.26241 17.571 5.25787 14.2894 7.12291 11.4982C8.98796 8.70696 11.6388 6.53147 14.7403 5.2468C17.8417 3.96214 21.2545 3.62601 24.5469 4.28093C27.8394 4.93584 30.8638 6.55239 33.2375 8.92613C35.6113 11.2999 37.2278 14.3242 37.8827 17.6167C38.5376 20.9092 38.2015 24.3219 36.9168 27.4234C35.6322 30.5248 33.4567 33.1757 30.6654 35.0407C27.8742 36.9058 24.5926 37.9012 21.2356 37.9012C16.7356 37.8962 12.4213 36.1064 9.23926 32.9244C6.05725 29.7424 4.2674 25.4281 4.26241 20.928Z"/>
</mask>
<path d="M48.9727 45.9965L37.1692 34.1954C40.5904 30.0881 42.2963 24.82 41.9322 19.487C41.5681 14.154 39.162 9.16665 35.2144 5.56247C31.2668 1.95829 26.0816 0.0147746 20.7375 0.136227C15.3935 0.25768 10.302 2.43475 6.52216 6.21454C2.74236 9.99434 0.565297 15.0859 0.443844 20.4299C0.322392 25.774 2.26591 30.9591 5.87008 34.9067C9.47426 38.8544 14.4616 41.2605 19.7946 41.6246C25.1277 41.9887 30.3958 40.2827 34.503 36.8616L46.3041 48.6651C46.4794 48.8403 46.6874 48.9793 46.9163 49.0741C47.1453 49.169 47.3906 49.2178 47.6384 49.2178C47.8862 49.2178 48.1316 49.169 48.3605 49.0741C48.5895 48.9793 48.7975 48.8403 48.9727 48.6651C49.1479 48.4899 49.2869 48.2819 49.3817 48.0529C49.4766 47.824 49.5254 47.5786 49.5254 47.3308C49.5254 47.083 49.4766 46.8376 49.3817 46.6087C49.2869 46.3798 49.1479 46.1717 48.9727 45.9965ZM4.26241 20.928C4.26241 17.571 5.25787 14.2894 7.12291 11.4982C8.98796 8.70696 11.6388 6.53147 14.7403 5.2468C17.8417 3.96214 21.2545 3.62601 24.5469 4.28093C27.8394 4.93584 30.8638 6.55239 33.2375 8.92613C35.6113 11.2999 37.2278 14.3242 37.8827 17.6167C38.5376 20.9092 38.2015 24.3219 36.9168 27.4234C35.6322 30.5248 33.4567 33.1757 30.6654 35.0407C27.8742 36.9058 24.5926 37.9012 21.2356 37.9012C16.7356 37.8962 12.4213 36.1064 9.23926 32.9244C6.05725 29.7424 4.2674 25.4281 4.26241 20.928Z" fill="#FFD80B"/>
<path d="M48.9727 45.9965L241.322 -146.353L241.313 -146.363L241.303 -146.372L48.9727 45.9965ZM37.1692 34.1954L-171.845 -139.901L-330.812 50.9484L-155.161 226.564L37.1692 34.1954ZM34.503 36.8616L226.872 -155.469L51.2561 -331.12L-139.594 -172.153L34.503 36.8616ZM46.3041 48.6651L-146.065 240.995L-146.055 241.005L-146.045 241.015L46.3041 48.6651ZM49.5254 47.3308H321.549H49.5254ZM4.26241 20.928H-267.761V21.0789L-267.761 21.2298L4.26241 20.928ZM21.2356 37.9012L20.9339 309.924L21.0848 309.925H21.2356V37.9012ZM241.303 -146.372L229.5 -158.173L-155.161 226.564L-143.358 238.365L241.303 -146.372ZM246.184 208.292C294.409 150.395 318.456 76.1341 313.324 0.958042L-229.459 38.016C-233.864 -26.494 -213.228 -90.2186 -171.845 -139.901L246.184 208.292ZM313.324 0.958042C308.191 -74.218 274.274 -144.521 218.627 -195.327L-148.198 206.452C-195.95 162.855 -225.055 102.526 -229.459 38.016L313.324 0.958042ZM218.627 -195.327C162.98 -246.133 89.8885 -273.529 14.5569 -271.817L26.9181 272.089C-37.7253 273.558 -100.447 250.049 -148.198 206.452L218.627 -195.327ZM14.5569 -271.817C-60.7746 -270.105 -132.546 -239.416 -185.827 -186.135L198.872 198.564C153.15 244.286 91.5616 270.62 26.9181 272.089L14.5569 -271.817ZM-185.827 -186.135C-239.109 -132.854 -269.797 -61.0822 -271.509 14.2493L272.397 26.6105C270.928 91.254 244.593 152.842 198.872 198.564L-185.827 -186.135ZM-271.509 14.2493C-273.221 89.5808 -245.825 162.672 -195.019 218.319L206.759 -148.506C250.357 -100.754 273.866 -38.0329 272.397 26.6105L-271.509 14.2493ZM-195.019 218.319C-144.214 273.966 -73.9104 307.884 1.26566 313.016L38.3236 -229.767C102.834 -225.363 163.162 -196.257 206.759 -148.506L-195.019 218.319ZM1.26566 313.016C76.4417 318.149 150.702 294.101 208.6 245.876L-139.594 -172.153C-89.9109 -213.536 -26.1864 -234.171 38.3236 -229.767L1.26566 313.016ZM-157.866 229.192L-146.065 240.995L238.673 -143.665L226.872 -155.469L-157.866 229.192ZM-146.045 241.015C-120.609 266.451 -90.4135 286.626 -57.1825 300.391L151.015 -202.243C183.788 -188.668 213.568 -168.77 238.654 -143.684L-146.045 241.015ZM-57.1825 300.391C-23.952 314.155 11.6661 321.241 47.6384 321.241V-222.806C83.1152 -222.806 118.242 -215.818 151.015 -202.243L-57.1825 300.391ZM47.6384 321.241C83.6108 321.241 119.229 314.155 152.459 300.391L-55.7383 -202.243C-22.9656 -215.818 12.1617 -222.806 47.6384 -222.806V321.241ZM152.459 300.391C185.69 286.626 215.886 266.451 241.322 241.015L-143.377 -143.684C-118.291 -168.77 -88.5114 -188.668 -55.7383 -202.243L152.459 300.391ZM241.322 241.015C266.758 215.579 286.934 185.383 300.699 152.152L-201.935 -56.0459C-188.36 -88.819 -168.462 -118.599 -143.377 -143.684L241.322 241.015ZM300.699 152.152C314.463 118.921 321.549 83.3032 321.549 47.3308H-222.498C-222.498 11.854 -215.51 -23.2733 -201.935 -56.0459L300.699 152.152ZM321.549 47.3308C321.549 11.3584 314.463 -24.2596 300.699 -57.4901L-201.935 150.708C-215.51 117.935 -222.498 82.8076 -222.498 47.3308H321.549ZM300.699 -57.4901C286.934 -90.7211 266.758 -120.917 241.322 -146.353L-143.377 238.346C-168.462 213.261 -188.36 183.481 -201.935 150.708L300.699 -57.4901ZM276.286 20.928C276.286 71.3722 261.327 120.683 233.302 162.626L-219.056 -139.63C-250.812 -92.1046 -267.761 -36.2301 -267.761 20.928H276.286ZM233.302 162.626C205.277 204.569 165.443 237.259 118.839 256.564L-89.3586 -246.07C-142.166 -224.197 -187.301 -187.155 -219.056 -139.63L233.302 162.626ZM118.839 256.564C72.2348 275.868 20.9527 280.919 -28.5222 271.077L77.6161 -262.516C21.5562 -273.667 -36.5513 -267.943 -89.3586 -246.07L118.839 256.564ZM-28.5222 271.077C-77.997 261.236 -123.443 236.945 -159.112 201.276L225.587 -183.423C185.17 -223.84 133.676 -251.365 77.6161 -262.516L-28.5222 271.077ZM-159.112 201.276C-194.781 165.606 -219.073 120.161 -228.914 70.6858L304.679 -35.4524C293.528 -91.5124 266.004 -143.007 225.587 -183.423L-159.112 201.276ZM-228.914 70.6858C-238.755 21.2109 -233.704 -30.0711 -214.4 -76.6754L288.234 131.522C310.107 78.715 315.83 20.6074 304.679 -35.4524L-228.914 70.6858ZM-214.4 -76.6754C-195.096 -123.28 -162.405 -163.113 -120.463 -191.138L181.794 261.22C229.319 229.465 266.36 184.329 288.234 131.522L-214.4 -76.6754ZM-120.463 -191.138C-78.5198 -219.164 -29.2085 -234.122 21.2356 -234.122V309.925C78.3937 309.925 134.268 292.975 181.794 261.22L-120.463 -191.138ZM21.5374 -234.122C89.0778 -234.047 153.83 -207.184 201.589 -159.425L-183.11 225.274C-128.988 279.396 -55.6066 309.839 20.9339 309.924L21.5374 -234.122ZM201.589 -159.425C249.347 -111.667 276.211 -46.9141 276.286 20.6263L-267.761 21.2298C-267.676 97.7702 -237.233 171.152 -183.11 225.274L201.589 -159.425Z" fill="#FFD80B" mask="url(#path-1-inside-1_0_46)"/>
</svg>
