<svg width="394" height="229" viewBox="0 0 394 229" fill="none" xmlns="http://www.w3.org/2000/svg">
<path d="M106.833 195.495H74.1667C69.6587 195.495 66 191.942 66 187.564C66 183.186 69.6587 179.632 74.1667 179.632H106.833C111.341 179.632 115 183.186 115 187.564C115 191.942 111.341 195.495 106.833 195.495Z" fill="#FFD80B"/>
<path d="M373.525 195.495H353.05C348.529 195.495 344.86 191.843 344.86 187.343C344.86 182.844 348.529 179.192 353.05 179.192H366.727L377.767 120.63C377.62 90.6646 351.903 65.0684 320.29 65.0684H266.514L240.453 179.192H287.529C292.05 179.192 295.719 182.844 295.719 187.343C295.719 191.843 292.05 195.495 287.529 195.495H230.199C227.709 195.495 225.351 194.37 223.794 192.43C222.238 190.506 221.649 187.963 222.206 185.55L251.985 55.1234C252.836 51.39 256.145 48.7651 259.978 48.7651H320.29C360.929 48.7651 394 81.6815 394 122.13L381.567 188.843C380.847 192.707 377.472 195.495 373.525 195.495Z" fill="#FFD80B"/>
<path d="M320 228.212C297.401 228.212 279 209.985 279 187.564C279 165.142 297.401 146.916 320 146.916C342.599 146.916 361 165.142 361 187.564C361 209.985 342.599 228.212 320 228.212ZM320 163.175C306.437 163.175 295.4 174.117 295.4 187.564C295.4 201.01 306.437 211.953 320 211.953C333.563 211.953 344.6 201.01 344.6 187.564C344.6 174.117 333.563 163.175 320 163.175Z" fill="#FFD80B"/>
<path d="M140 228.212C117.401 228.212 99 209.985 99 187.564C99 165.142 117.401 146.916 140 146.916C162.599 146.916 181 165.142 181 187.564C181 209.985 162.599 228.212 140 228.212ZM140 163.175C126.437 163.175 115.4 174.117 115.4 187.564C115.4 201.01 126.437 211.953 140 211.953C153.563 211.953 164.6 201.01 164.6 187.564C164.6 174.117 153.563 163.175 140 163.175Z" fill="#FFD80B"/>
<path d="M106.8 48.765H41.2C36.6736 48.765 33 45.2118 33 40.8337C33 36.4556 36.6736 32.9023 41.2 32.9023H106.8C111.326 32.9023 115 36.4556 115 40.8337C115 45.2118 111.326 48.765 106.8 48.765Z" fill="#FFD80B"/>
<path d="M106.75 98.336H24.25C19.696 98.336 16 94.5607 16 89.909C16 85.2573 19.696 81.4819 24.25 81.4819H106.75C111.304 81.4819 115 85.2573 115 89.909C115 94.5607 111.304 98.336 106.75 98.336Z" fill="#FFD80B"/>
<path d="M106.786 146.915H8.21429C3.68 146.915 0 143.14 0 138.488C0 133.836 3.68 130.061 8.21429 130.061H106.786C111.32 130.061 115 133.836 115 138.488C115 143.14 111.32 146.915 106.786 146.915Z" fill="#FFD80B"/>
<path d="M229.839 195.495H172.496C167.974 195.495 164.304 191.849 164.304 187.357C164.304 182.865 167.974 179.219 172.496 179.219H223.302L260.526 16.4613H74.192C69.67 16.4613 66 12.8155 66 8.32343C66 3.83132 69.67 0.185547 74.192 0.185547H270.799C273.289 0.185547 275.649 1.30858 277.205 3.2454C278.762 5.16594 279.351 7.70496 278.794 10.1138L237.835 189.147C236.983 192.874 233.657 195.495 229.839 195.495Z" fill="#FFD80B"/>
</svg>
