<svg width="394" height="229" viewBox="0 0 394 229" fill="none" xmlns="http://www.w3.org/2000/svg">
<path d="M106.833 195.309H74.1667C69.6587 195.309 66 191.756 66 187.378C66 183 69.6587 179.446 74.1667 179.446H106.833C111.341 179.446 115 183 115 187.378C115 191.756 111.341 195.309 106.833 195.309Z" fill="white"/>
<path d="M373.525 195.309H353.05C348.529 195.309 344.86 191.657 344.86 187.157C344.86 182.658 348.529 179.006 353.05 179.006H366.727L377.767 120.444C377.62 90.4786 351.903 64.8824 320.29 64.8824H266.514L240.453 179.006H287.529C292.05 179.006 295.719 182.658 295.719 187.157C295.719 191.657 292.05 195.309 287.529 195.309H230.199C227.709 195.309 225.351 194.184 223.794 192.244C222.238 190.32 221.649 187.777 222.206 185.364L251.985 54.9374C252.836 51.2039 256.145 48.5791 259.978 48.5791H320.29C360.929 48.5791 394 81.4955 394 121.944L381.567 188.657C380.847 192.521 377.472 195.309 373.525 195.309Z" fill="white"/>
<path d="M320 228.026C297.401 228.026 279 209.799 279 187.378C279 164.956 297.401 146.729 320 146.729C342.599 146.729 361 164.956 361 187.378C361 209.799 342.599 228.026 320 228.026ZM320 162.989C306.437 162.989 295.4 173.931 295.4 187.378C295.4 200.824 306.437 211.766 320 211.766C333.563 211.766 344.6 200.824 344.6 187.378C344.6 173.931 333.563 162.989 320 162.989Z" fill="white"/>
<path d="M140 228.026C117.401 228.026 99 209.799 99 187.378C99 164.956 117.401 146.729 140 146.729C162.599 146.729 181 164.956 181 187.378C181 209.799 162.599 228.026 140 228.026ZM140 162.989C126.437 162.989 115.4 173.931 115.4 187.378C115.4 200.824 126.437 211.766 140 211.766C153.563 211.766 164.6 200.824 164.6 187.378C164.6 173.931 153.563 162.989 140 162.989Z" fill="white"/>
<path d="M106.8 48.5795H41.2C36.6736 48.5795 33 45.0262 33 40.6481C33 36.27 36.6736 32.7168 41.2 32.7168H106.8C111.326 32.7168 115 36.27 115 40.6481C115 45.0262 111.326 48.5795 106.8 48.5795Z" fill="white"/>
<path d="M106.75 98.15H24.25C19.696 98.15 16 94.3747 16 89.7229C16 85.0712 19.696 81.2959 24.25 81.2959H106.75C111.304 81.2959 115 85.0712 115 89.7229C115 94.3747 111.304 98.15 106.75 98.15Z" fill="white"/>
<path d="M106.786 146.73H8.21429C3.68 146.73 0 142.955 0 138.303C0 133.651 3.68 129.876 8.21429 129.876H106.786C111.32 129.876 115 133.651 115 138.303C115 142.955 111.32 146.73 106.786 146.73Z" fill="white"/>
<path d="M229.839 195.309H172.496C167.974 195.309 164.304 191.664 164.304 187.171C164.304 182.679 167.974 179.034 172.496 179.034H223.302L260.526 16.2758H74.192C69.67 16.2758 66 12.63 66 8.13789C66 3.64577 69.67 0 74.192 0H270.799C273.289 0 275.649 1.12303 277.205 3.05985C278.762 4.98039 279.351 7.51941 278.794 9.92822L237.835 188.962C236.983 192.689 233.657 195.309 229.839 195.309Z" fill="white"/>
</svg>
